# xmcd CD Database Entry
#
# Track frame offsets:
# 150
# 13911
# 29454
# 50388
# 66719
# 84613
# 107717
# 130742
# 148294
# 175791
# 201004
# 215399
# 237468
# 260973
#
# Disc length: 3741 seconds
#
# Revision: 1
# Processed by: cddbd v1.4PL0 Copyright (c) Steve Scherf et al.
# Submitted via: tcd 2.0b
#
DISCID=db0e9b0e
DTITLE=Robert Køes»an - Druhá tráva - Live
DYEAR=1900
DGENRE=
TTITLE0=Mulleskiner blues
TTITLE1=3 strá¾níci
TTITLE2=Ossian
TTITLE3=Praha bolestivostí
TTITLE4=Jíra z Mar¹ova
TTITLE5=Za poslední lodí
TTITLE6=Skoèná
TTITLE7=On and on
TTITLE8=Ne¾ zazvoní hrana
TTITLE9=Na plese vévodkynì z Richmondu
TTITLE10=Mama don't allow
TTITLE11=Je¹tì jedno kafe
TTITLE12=Orange blossom special
TTITLE13=Záti¹í s buvoly
EXTD=
EXTT0=
EXTT1=
EXTT2=
EXTT3=
EXTT4=
EXTT5=
EXTT6=
EXTT7=
EXTT8=
EXTT9=
EXTT10=
EXTT11=
EXTT12=
EXTT13=
PLAYORDER=
